<svg width="250" height="138" viewBox="0 0 250 138" fill="none" xmlns="http://www.w3.org/2000/svg">
<g clip-path="url(#clip0_44_101)">
<path d="M5.65516 78.1613C4.31238 78.1613 3.22783 77.5125 2.4015 76.215C1.57518 74.9694 0.98126 73.4384 0.619743 71.6219C0.206581 69.8573 0 68.1965 0 66.6395C0 62.4356 0.645566 57.6867 1.9367 52.393C3.22783 47.1511 5.16453 41.3902 7.74679 35.1103C8.62476 33.0343 9.52855 30.7507 10.4582 28.2595C11.4394 25.7683 12.4723 23.0955 13.5569 20.241C14.2283 18.5283 14.9771 16.6599 15.8034 14.6358C16.6298 12.5598 17.5852 10.3281 18.6698 7.94069C18.8247 7.68119 19.0313 7.55144 19.2895 7.55144C19.7027 7.55144 20.1933 7.78499 20.7614 8.25209C21.3295 8.66728 21.6135 9.08248 21.6135 9.49768L20.1416 12.9231L9.68348 35.9666C9.99336 35.6033 10.3549 35.4217 10.768 35.4217C12.4723 35.4217 14.2024 38.3021 15.9584 44.063C16.3715 44.5301 17.0171 44.9194 17.8951 45.2308C18.773 45.4903 19.6252 45.62 20.4515 45.62C21.9492 45.5681 23.4469 45.101 24.9447 44.2187C26.4424 43.2845 27.7593 42.0908 28.8955 40.6376C28.9988 40.5338 29.1279 40.4041 29.2829 40.2484C29.4894 40.0927 29.6186 40.0148 29.6702 40.0148C29.8768 40.0148 29.9801 40.1705 29.9801 40.4819C29.9801 40.6376 29.9026 40.8452 29.7477 41.1047C29.6444 41.3642 29.5411 41.5459 29.4378 41.6497C28.1467 43.3624 26.5715 44.6858 24.7123 45.62C22.9047 46.5542 21.1746 47.0213 19.5219 47.0213C18.8505 47.0213 18.2824 46.9954 17.8176 46.9435C17.4044 46.8397 17.0429 46.7618 16.7331 46.7099C16.9913 47.5403 17.1979 48.4745 17.3528 49.5125C17.5077 50.6024 17.5852 51.7183 17.5852 52.8601C17.5852 54.6766 17.4044 56.6228 17.0429 58.6988C16.6814 60.8267 16.1391 63.0324 15.4161 65.316C14.7964 67.392 13.97 69.4161 12.9371 71.3883C11.9559 73.3605 10.8455 74.9694 9.60602 76.215C8.36653 77.5125 7.04958 78.1613 5.65516 78.1613ZM6.11996 75.5144C7.15287 75.5144 8.18577 74.9435 9.21868 73.8017C10.3032 72.6599 11.2845 71.2586 12.1625 69.5978C13.0404 67.9889 13.7376 66.4578 14.2541 65.0046C14.8222 63.1881 15.2353 61.3976 15.4936 59.633C15.8034 57.9203 15.9584 56.2076 15.9584 54.4949C15.9584 52.9379 15.8293 51.355 15.571 49.7461C15.3128 48.1891 14.9255 46.6061 14.409 44.9972C11.0004 42.9731 9.21868 40.456 9.06374 37.4458L8.6764 38.6135C8.52147 39.2363 8.26324 40.0148 7.90172 40.949C7.54021 41.8313 7.15287 42.8953 6.73971 44.1409C3.74428 53.0158 2.24657 60.2298 2.24657 65.7831C2.24657 67.1325 2.37568 68.5598 2.63391 70.0649C2.89213 71.6219 3.3053 72.9194 3.87339 73.9574C4.44149 74.9954 5.19035 75.5144 6.11996 75.5144ZM36.9522 49.5125C31.736 49.5125 29.1279 45.646 29.1279 37.9129C29.1279 30.3355 31.6069 22.1094 36.5648 13.2345C41.4195 4.41149 46.0159 0 50.3541 0C51.9035 0 52.9364 1.06395 53.4528 3.19184V4.20389C53.4528 7.94068 50.5865 14.2465 44.8539 23.1214C42.4266 26.962 40.1284 30.3095 37.9593 33.164C35.8418 36.0185 33.8535 38.4319 31.9942 40.4041C32.614 45.0751 34.7573 47.4106 38.4241 47.4106C40.6448 47.4106 42.5299 46.7878 44.0792 45.5422C45.6286 44.2447 47.2812 42.506 49.0372 40.3262C49.347 40.0148 49.5536 39.8591 49.6569 39.8591C49.8118 39.8591 49.8893 39.9889 49.8893 40.2484C49.8893 40.6117 49.7086 41.0788 49.347 41.6497C47.1263 44.5042 45.0347 46.5283 43.0721 47.722C41.1096 48.9157 39.0696 49.5125 36.9522 49.5125ZM32.0717 38.4578C34.8605 35.7071 38.5015 30.2576 42.9947 22.1094C47.746 13.4421 50.1217 7.47358 50.1217 4.20389C50.1217 2.75069 49.7086 2.02409 48.8822 2.02409C45.6802 2.02409 42.0392 6.64319 37.9593 15.8814C36.0484 20.4486 34.5765 24.6006 33.5436 28.3373C32.5623 32.0741 32.0717 35.4476 32.0717 38.4578Z" fill="black"/>
<path d="M64.7553 48.8897C63.3092 48.8897 62.3021 48.3448 61.734 47.2549C61.1659 46.165 60.8819 44.608 60.8819 42.5839C60.8819 42.3244 60.8819 42.0649 60.8819 41.8054C60.8819 41.494 60.9077 41.2085 60.9593 40.949C60.1847 42.4541 58.9194 43.9333 57.1634 45.3865C55.2525 47.0992 53.5741 47.9555 52.128 47.9555C51.1984 47.9555 50.3721 47.4106 49.649 46.3207C49.0809 45.2827 48.7969 44.2447 48.7969 43.2067C48.7969 41.4421 49.2359 39.4439 50.1138 37.2122C51.0435 34.4096 52.2313 33.0083 53.6774 33.0083C54.1938 33.0083 54.4779 33.3457 54.5295 34.0204C52.5153 37.4977 51.5083 40.2743 51.5083 42.3503C51.5083 44.3744 52.128 45.3865 53.3675 45.3865C56.0014 45.3865 58.8677 42.532 61.9664 36.823C62.0697 36.5116 62.2247 36.1483 62.4312 35.7331C62.6895 35.266 62.9735 34.7729 63.2834 34.2539C63.4383 33.7868 64.1355 33.5533 65.375 33.5533C65.7882 33.5533 65.9948 33.709 65.9948 34.0204L65.1426 36.4337C64.7294 37.5755 64.4454 38.6654 64.2905 39.7034C64.1355 40.7414 64.0581 41.7016 64.0581 42.5839C64.0581 45.4384 64.7295 46.8656 66.0722 46.8656C67.1051 46.8656 68.3704 46.2169 69.8682 44.9194C71.4175 43.6219 72.8378 42.0908 74.1289 40.3262C74.2838 40.1705 74.4129 40.0927 74.5162 40.0927C74.7228 40.0927 74.8261 40.2743 74.8261 40.6376C74.8261 41.0009 74.697 41.3383 74.4388 41.6497C72.3729 44.4004 70.5395 46.2947 68.9385 47.3327C67.3892 48.3707 65.9948 48.8897 64.7553 48.8897Z" fill="black"/>
<path d="M73.0613 78.1613C71.1504 78.1613 69.6527 76.6562 68.5681 73.646C67.7935 71.4662 67.4061 69.1307 67.4061 66.6395C67.4061 62.4356 68.0517 57.6867 69.3428 52.393C70.634 47.1511 72.5707 41.3902 75.1529 35.1103C76.0309 33.0343 76.9347 30.7507 77.8643 28.2595C78.8456 25.7683 79.8785 23.0955 80.963 20.241C81.6344 18.5283 82.3832 16.6599 83.2096 14.6358C84.0359 12.5598 84.9913 10.3281 86.0759 7.94069C86.2308 7.68119 86.4374 7.55144 86.6956 7.55144C87.1088 7.55144 87.5994 7.78499 88.1675 8.25209C88.7356 8.66728 89.0197 9.08248 89.0197 9.49768L87.5478 12.9231L77.0896 35.9666C77.3995 35.6033 77.761 35.4217 78.1742 35.4217C79.8785 35.4217 81.6086 38.3021 83.3645 44.063C83.7777 44.5301 84.4232 44.9194 85.3012 45.2308C86.1792 45.4903 87.0313 45.62 87.8576 45.62C88.9422 45.5681 90.0526 45.2827 91.1888 44.7637C92.2217 41.6497 93.4095 38.4319 94.7523 35.1103C95.6303 33.0343 96.534 30.7507 97.4637 28.2595C98.4449 25.7683 99.5036 23.0955 100.64 20.241C101.26 18.5283 101.983 16.6599 102.809 14.6358C103.687 12.5598 104.668 10.3281 105.753 7.94069C105.908 7.68119 106.114 7.55144 106.372 7.55144C106.786 7.55144 107.276 7.78499 107.844 8.25209C108.412 8.66728 108.697 9.08248 108.697 9.49768L96.7664 35.9666C97.0763 35.6033 97.412 35.4217 97.7735 35.4217C99.4262 35.4217 101.182 38.3021 103.041 44.063C103.455 44.5301 104.074 44.9194 104.901 45.2308C105.779 45.4903 106.631 45.62 107.457 45.62C108.955 45.5681 110.452 45.101 111.95 44.2187C113.448 43.2845 114.791 42.0908 115.978 40.6376C116.082 40.5338 116.211 40.4041 116.366 40.2484C116.521 40.0927 116.624 40.0148 116.676 40.0148C116.882 40.0148 116.986 40.1705 116.986 40.4819C116.986 40.6376 116.908 40.8452 116.753 41.1047C116.65 41.3642 116.547 41.5459 116.443 41.6497C115.152 43.3624 113.603 44.6858 111.795 45.62C109.988 46.5542 108.258 47.0213 106.605 47.0213C105.933 47.0213 105.365 46.9954 104.901 46.9435C104.436 46.8397 104.074 46.7618 103.816 46.7099C104.023 47.5403 104.203 48.4745 104.358 49.5125C104.513 50.6024 104.591 51.7183 104.591 52.8601C104.591 54.6766 104.41 56.6228 104.048 58.6988C103.739 60.8267 103.222 63.0324 102.499 65.316C100.95 70.3503 98.9872 73.9833 96.6115 76.215C95.3204 77.5125 94.0293 78.1613 92.7381 78.1613C90.7756 78.1613 89.2779 76.6562 88.245 73.646C87.4703 71.4662 87.083 69.1307 87.083 66.6395C87.083 60.8267 88.2966 54.0278 90.724 46.2428C89.3812 46.7618 88.1159 47.0213 86.928 47.0213C86.2566 47.0213 85.6885 46.9954 85.2237 46.9435C84.8106 46.8397 84.4491 46.7618 84.1392 46.7099C84.3974 47.5403 84.604 48.4745 84.7589 49.5125C84.9139 50.6024 84.9913 51.7183 84.9913 52.8601C84.9913 54.6766 84.8106 56.6228 84.4491 58.6988C84.0875 60.8267 83.5453 63.0324 82.8222 65.316C81.2729 70.3503 79.3104 73.9833 76.9347 76.215C75.6952 77.5125 74.4041 78.1613 73.0613 78.1613ZM73.5261 75.5144C74.4557 75.5144 75.3853 75.0473 76.3149 74.1131C77.4511 73.0751 78.4582 71.7776 79.3362 70.2206C80.2142 68.7155 80.9888 66.9768 81.6602 65.0046C82.2283 63.1881 82.6415 61.3976 82.8997 59.633C83.2096 57.9203 83.3645 56.2076 83.3645 54.4949C83.3645 52.9379 83.2354 51.355 82.9772 49.7461C82.7189 48.1891 82.3316 46.6061 81.8152 44.9972C78.4066 42.9731 76.6248 40.456 76.4699 37.4458L76.0825 38.6135C75.9276 39.2363 75.6694 40.0148 75.3078 40.949C74.9463 41.8313 74.559 42.8953 74.1458 44.1409C71.1504 53.0158 69.6527 60.2298 69.6527 65.7831C69.6527 66.873 69.7043 67.911 69.8076 68.8971C69.9109 69.8832 70.0917 70.8174 70.3499 71.6997C71.0213 74.2428 72.08 75.5144 73.5261 75.5144ZM93.2029 75.5144C94.0809 75.5144 95.0105 75.0473 95.9918 74.1131C98.2125 71.9852 99.9685 68.949 101.26 65.0046C102.447 61.3197 103.041 57.8165 103.041 54.4949C103.041 51.4328 102.499 48.2669 101.415 44.9972C98.0576 43.025 96.3016 40.5079 96.1467 37.4458L95.7594 38.6135C95.5528 39.2363 95.2687 40.0148 94.9072 40.949C94.5973 41.8313 94.2358 42.8953 93.8227 44.1409C92.325 48.6043 91.1888 52.6265 90.4141 56.2076C89.6394 59.8406 89.2521 63.0324 89.2521 65.7831C89.2521 68.0148 89.5103 69.987 90.0267 71.6997C90.6981 74.2428 91.7569 75.5144 93.2029 75.5144Z" fill="black"/>
<path d="M99.3998 84C96.0428 84 93.4347 83.1437 91.5755 81.431C89.5097 79.6664 88.4768 77.1752 88.4768 73.9574C88.4768 63.5774 102.266 54.8842 129.845 47.8777C130.103 45.3346 130.284 42.9991 130.387 40.8712C130.542 38.6914 130.645 36.7451 130.697 35.0324C130.335 36.1223 129.922 37.1603 129.457 38.1464C128.992 39.1325 128.502 40.0667 127.985 40.949C127.262 42.4022 126.023 43.9073 124.267 45.4643C122.201 47.1251 120.523 47.9555 119.232 47.9555C118.25 47.9555 117.398 47.4106 116.675 46.3207C116.107 45.3346 115.823 44.2966 115.823 43.2067C115.823 41.4421 116.262 39.4439 117.14 37.2122C118.07 34.4096 119.257 33.0083 120.703 33.0083C121.22 33.0083 121.504 33.3457 121.556 34.0204C119.541 37.2901 118.534 40.3003 118.534 43.051C118.534 44.608 119.154 45.3865 120.394 45.3865C122.614 45.3865 124.964 43.2586 127.443 39.0028C129.716 35.2141 130.852 32.0222 130.852 29.4272C130.852 28.6487 131.471 28.2595 132.711 28.2595C133.692 28.2595 134.183 28.7525 134.183 29.7386C134.183 31.607 134.08 34.0204 133.873 36.9787C133.718 39.8851 133.46 43.3364 133.098 47.3327C133.666 47.177 134.441 47.0213 135.422 46.8656C136.455 46.7099 137.333 46.6321 138.056 46.6321C140.019 46.6321 141 46.9175 141 47.4884C141 47.7479 140.819 47.8777 140.458 47.8777C140.303 47.8777 139.967 47.8777 139.451 47.8777C138.934 47.8258 138.392 47.7998 137.824 47.7998C137.307 47.7998 136.507 47.9036 135.422 48.1112C134.389 48.3188 133.511 48.5264 132.788 48.734C130.826 63.6812 124.344 74.165 113.344 80.1854C111.02 81.431 108.722 82.3652 106.449 82.988C104.125 83.6627 101.775 84 99.3998 84ZM101.801 81.7424C106.398 81.7424 110.116 80.912 112.957 79.2512C122.356 73.9055 127.908 63.9147 129.612 49.279C103.583 56.1816 90.5684 64.1483 90.5684 73.1789C90.5684 78.8879 94.3127 81.7424 101.801 81.7424Z" fill="black"/>
<path d="M44.2298 132.701C44.2298 133.259 44.2911 133.692 44.4137 134.002C44.5362 134.312 44.7814 134.56 45.1491 134.746C45.5781 134.87 46.1909 134.963 46.9876 135.025C47.8456 135.087 48.9793 135.118 50.3888 135.118C52.7176 135.18 54.2497 135.273 54.9851 135.397C55.7818 135.583 56.1801 135.986 56.1801 136.605C56.1801 136.915 55.9963 137.225 55.6286 137.535C55.3222 137.845 54.6174 138 53.5143 138C51.8596 138 50.4501 138 49.2857 138C48.1826 138 47.2327 137.969 46.436 137.907C45.7006 137.907 45.1184 137.876 44.6895 137.814C44.2605 137.814 43.8928 137.814 43.5863 137.814C42.2994 137.69 41.4108 137.163 40.9205 136.234C40.4915 135.304 40.2464 134.064 40.1851 132.515L40.0013 127.495C38.5304 130.16 36.3855 132.267 33.5665 133.816C30.8087 135.304 27.7752 136.048 24.4658 136.048C21.2791 136.048 18.552 135.366 16.2845 134.002C14.0783 132.639 12.2704 130.934 10.8609 128.889C9.51263 126.782 8.53209 124.489 7.91926 122.01C7.30642 119.53 7 117.175 7 114.944C7 113.828 7.09193 112.465 7.27578 110.853C7.45963 109.18 7.79669 107.445 8.28696 105.647C8.83851 103.85 9.57391 102.083 10.4932 100.348C11.4124 98.5507 12.5768 96.9702 13.9863 95.6067C15.4571 94.1812 17.2344 93.0346 19.318 92.1669C21.4017 91.2992 23.853 90.8653 26.6721 90.8653C28.5106 90.8653 30.1346 91.0512 31.5441 91.4231C33.0149 91.733 34.3019 92.1669 35.405 92.7247C36.5694 93.2825 37.5499 93.9023 38.3466 94.584C39.1433 95.2658 39.7868 95.9166 40.277 96.5364V64.9273C40.277 64.1216 39.9093 63.6567 39.1739 63.5328C38.4998 63.3468 37.6418 63.2539 36.6 63.2539C35.1905 63.2539 33.8422 63.2849 32.5553 63.3468C31.2683 63.4088 29.583 63.4398 27.4994 63.4398C27.4381 63.4398 27.2542 63.4398 26.9478 63.4398C26.7027 63.4398 26.4269 63.4088 26.1205 63.3468C25.8141 63.2849 25.5383 63.1919 25.2932 63.0679C25.048 62.882 24.9255 62.6651 24.9255 62.4172C24.9255 61.8594 25.5689 61.4255 26.8559 61.1156C28.1429 60.7437 29.6443 60.4958 31.3603 60.3719C33.0762 60.1859 34.7309 60.093 36.3242 60.093C37.9789 60.031 39.1739 60 39.9093 60C41.3189 60 42.3913 60.1549 43.1267 60.4648C43.8621 60.7747 44.2298 61.7974 44.2298 63.5328C44.2298 64.6484 44.2298 66.3838 44.2298 68.739C44.2298 71.0322 44.1992 73.6353 44.1379 76.5483C44.1379 79.3993 44.1073 82.3743 44.046 85.4732C44.046 88.5721 44.0153 91.4541 43.954 94.1192C43.954 96.7843 43.954 99.1085 43.954 101.092C43.954 103.075 43.954 104.377 43.954 104.996C43.954 106.05 43.954 109.056 43.954 114.014C44.0153 118.911 44.1073 125.139 44.2298 132.701ZM26.0286 133.259C28.9702 133.259 31.3603 132.608 33.1988 131.306C35.0986 130.005 36.5694 128.331 37.6112 126.286C38.7143 124.241 39.4803 121.979 39.9093 119.499C40.3383 117.02 40.5528 114.572 40.5528 112.155C40.5528 110.915 40.4915 109.428 40.369 107.692C40.2464 105.957 39.9706 104.315 39.5416 102.765C39.1739 101.464 38.6837 100.255 38.0708 99.1394C37.458 98.0238 36.6613 97.0632 35.6808 96.2574C34.7615 95.3897 33.5971 94.708 32.1876 94.2122C30.8393 93.7163 29.246 93.4684 27.4075 93.4684C24.4658 93.4684 21.9532 94.0572 19.8696 95.2348C17.8472 96.4124 16.1619 97.9928 14.8137 99.9762C13.4654 101.959 12.4849 104.222 11.8721 106.763C11.2592 109.304 10.9528 111.907 10.9528 114.572C10.9528 117.795 11.3511 120.584 12.1478 122.939C12.9445 125.294 14.017 127.247 15.3652 128.796C16.7747 130.284 18.3988 131.399 20.2373 132.143C22.0758 132.887 24.0062 133.259 26.0286 133.259Z" fill="black"/>
<path d="M87.8083 102.765C87.8083 103.509 87.747 104.284 87.6244 105.089C87.5018 105.833 87.2567 106.546 86.889 107.228C86.5826 107.909 86.123 108.467 85.5101 108.901C84.9586 109.335 84.2232 109.552 83.3039 109.552C82.2621 109.552 81.4654 109.273 80.9138 108.715C80.4236 108.157 80.1784 107.445 80.1784 106.577C80.1784 105.771 80.3623 105.151 80.73 104.718C81.159 104.284 81.588 103.912 82.0169 103.602C82.5072 103.292 82.9362 102.951 83.3039 102.579C83.7329 102.207 83.9474 101.65 83.9474 100.906C83.9474 99.8522 83.549 99.0775 82.7523 98.5816C81.9557 98.0238 80.9445 97.7449 79.7188 97.7449C78.6157 97.7449 77.4207 97.9928 76.1337 98.4887C74.8468 98.9845 73.6517 99.8212 72.5486 100.999C71.4455 102.176 70.5263 103.726 69.7909 105.647C69.0555 107.507 68.6878 109.831 68.6878 112.62V132.329H72.7325C75.9192 132.329 78.1561 132.484 79.443 132.794C80.73 133.104 81.3735 133.507 81.3735 134.002C81.3735 134.374 81.159 134.684 80.73 134.932C80.3623 135.118 79.9639 135.211 79.535 135.211C78.677 135.211 77.6658 135.211 76.5014 135.211C75.3983 135.149 74.2646 135.118 73.1002 135.118C71.9358 135.056 70.802 135.025 69.6989 135.025C68.5958 134.963 67.6459 134.932 66.8492 134.932C65.2559 134.932 63.8157 134.994 62.5287 135.118C61.2418 135.18 59.8323 135.211 58.3002 135.211C57.8099 135.211 57.3503 135.087 56.9213 134.839C56.4923 134.591 56.2778 134.312 56.2778 134.002C56.2778 133.631 56.7681 133.29 57.7486 132.98C58.7292 132.67 60.0161 132.453 61.6095 132.329C62.7126 132.267 63.3867 132.112 63.6318 131.864C63.877 131.616 64.0915 130.965 64.2753 129.912C64.4592 128.92 64.5817 127.65 64.643 126.1C64.7656 124.551 64.8575 122.536 64.9188 120.057C65.0414 117.516 65.1027 114.417 65.1027 110.76C65.1639 107.104 65.1946 102.672 65.1946 97.466C65.1946 96.5983 64.735 96.1645 63.8157 96.1645H54.7151C54.1022 96.1645 53.6426 96.0095 53.3362 95.6996C53.0298 95.3897 52.8766 95.1418 52.8766 94.9559C52.8766 94.708 53.3055 94.4911 54.1635 94.3051C55.0215 94.0572 56.0633 93.8713 57.289 93.7473C58.5147 93.5614 59.8323 93.4374 61.2418 93.3754C62.7126 93.3135 63.9995 93.2825 65.1027 93.2825C66.696 93.2825 67.7685 93.4684 68.32 93.8403C68.8716 94.2122 69.1474 95.2038 69.1474 96.8153V101.371C70.6182 99.2014 72.3035 97.59 74.2033 96.5364C76.1031 95.4207 78.1254 94.8629 80.2704 94.8629C82.5379 94.8629 84.3457 95.4827 85.694 96.7223C87.1035 97.9619 87.8083 99.9762 87.8083 102.765Z" fill="black"/>
<path d="M123.524 107.971C124.566 107.971 125.087 107.414 125.087 106.298C125.087 105.058 124.842 103.726 124.351 102.3C123.861 100.813 123.095 99.4493 122.053 98.2098C121.012 96.9702 119.663 95.9476 118.009 95.1418C116.415 94.2741 114.485 93.8403 112.217 93.8403C109.889 93.8403 107.866 94.2741 106.15 95.1418C104.496 96.0095 103.055 97.1561 101.83 98.5816C100.665 99.9452 99.7155 101.495 98.9801 103.23C98.306 104.903 97.8157 106.608 97.5093 108.343L123.524 107.971ZM97.1416 111.132C97.0803 111.814 97.019 112.496 96.9577 113.178C96.9577 113.797 96.9577 114.386 96.9577 114.944C96.9577 117.175 97.2028 119.375 97.6931 121.545C98.2447 123.714 99.1026 125.666 100.267 127.402C101.493 129.137 103.055 130.563 104.955 131.678C106.916 132.732 109.276 133.259 112.033 133.259C114.546 133.259 116.752 132.825 118.652 131.957C120.552 131.089 122.115 129.943 123.34 128.517C124.627 127.092 125.577 125.449 126.19 123.59C126.864 121.731 127.201 119.809 127.201 117.826C127.201 116.71 127.722 116.153 128.764 116.153C129.806 116.153 130.327 116.71 130.327 117.826C130.327 120.243 129.867 122.567 128.948 124.799C128.029 127.03 126.742 129.013 125.087 130.749C123.494 132.422 121.594 133.754 119.388 134.746C117.181 135.738 114.791 136.234 112.217 136.234C108.969 136.234 106.12 135.676 103.668 134.56C101.278 133.445 99.2865 131.895 97.6931 129.912C96.0997 127.928 94.8741 125.604 94.0161 122.939C93.2194 120.212 92.8211 117.299 92.8211 114.2C92.8211 110.791 93.3113 107.661 94.2919 104.81C95.3337 101.897 96.7432 99.4184 98.5204 97.3731C100.298 95.3278 102.381 93.7473 104.771 92.6317C107.161 91.4541 109.735 90.8653 112.493 90.8653C115.435 90.8653 117.947 91.4851 120.031 92.7247C122.115 93.9023 123.8 95.3588 125.087 97.0942C126.435 98.7676 127.416 100.534 128.029 102.393C128.703 104.191 129.04 105.709 129.04 106.949C129.04 107.94 128.764 108.839 128.212 109.645C127.722 110.451 126.925 110.884 125.822 110.946C124.229 111.008 122.268 111.039 119.939 111.039C117.672 111.039 115.312 111.039 112.861 111.039C112.125 111.039 111.053 111.039 109.643 111.039C108.234 111.039 106.732 111.07 105.139 111.132C103.607 111.132 102.106 111.132 100.635 111.132C99.1639 111.132 97.9995 111.132 97.1416 111.132Z" fill="black"/>
<path d="M163.307 114.851C163.307 114.045 163.307 113.271 163.307 112.527C163.368 111.721 163.399 111.101 163.399 110.667C163.399 105.833 162.541 102.114 160.825 99.5113C159.109 96.8462 156.229 95.5137 152.184 95.5137C150.836 95.5137 149.518 95.6687 148.231 95.9785C146.944 96.2265 145.78 96.6293 144.738 97.1871C143.758 97.7449 142.961 98.4267 142.348 99.2324C141.735 100.038 141.429 100.937 141.429 101.928C141.429 102.672 141.613 103.137 141.98 103.323C142.348 103.509 142.777 103.664 143.267 103.788C143.758 103.912 144.248 104.129 144.738 104.439C145.29 104.687 145.565 105.306 145.565 106.298C145.565 107.228 145.259 108.002 144.646 108.622C144.095 109.242 143.298 109.552 142.256 109.552C140.847 109.552 139.744 108.994 138.947 107.878C138.211 106.701 137.844 105.306 137.844 103.695C137.844 102.021 138.211 100.534 138.947 99.2324C139.744 97.8689 140.785 96.7223 142.072 95.7926C143.421 94.801 145.014 94.0572 146.852 93.5614C148.691 93.0036 150.713 92.7247 152.92 92.7247C157.761 92.7247 161.315 94.1192 163.583 96.9082C165.912 99.6973 167.076 104.16 167.076 110.296C167.076 111.039 167.045 112 166.984 113.178C166.984 114.293 166.953 115.471 166.892 116.71C166.892 117.95 166.862 119.22 166.8 120.522C166.8 121.762 166.8 122.877 166.8 123.869C166.8 125.79 166.862 127.371 166.984 128.61C167.107 129.85 167.321 130.841 167.628 131.585C167.995 132.267 168.424 132.763 168.915 133.073C169.466 133.321 170.11 133.445 170.845 133.445C171.703 133.445 172.377 133.321 172.867 133.073C173.358 132.763 173.725 132.36 173.97 131.864C174.277 131.368 174.461 130.81 174.522 130.191C174.645 129.509 174.736 128.827 174.798 128.145C174.859 127.402 175.165 127.03 175.717 127.03C176.207 127.03 176.514 127.216 176.636 127.588C176.82 127.959 176.912 128.486 176.912 129.168C176.912 131.833 176.33 133.692 175.165 134.746C174.001 135.738 172.53 136.234 170.753 136.234C169.098 136.234 167.597 135.831 166.249 135.025C164.962 134.157 164.042 132.732 163.491 130.749C161.53 132.546 159.354 133.909 156.964 134.839C154.635 135.769 152.031 136.234 149.151 136.234C144.861 136.234 141.429 135.242 138.855 133.259C136.342 131.275 135.086 128.641 135.086 125.356C135.086 123.683 135.454 122.133 136.189 120.708C136.924 119.22 137.966 117.95 139.315 116.896C140.663 115.843 142.287 115.037 144.187 114.479C146.086 113.859 148.201 113.549 150.529 113.549C152.858 113.549 155.095 113.89 157.24 114.572C159.385 115.254 161.407 116.338 163.307 117.826V114.851ZM138.855 125.356C138.855 127.836 139.835 129.819 141.797 131.306C143.819 132.732 146.423 133.445 149.61 133.445C151.449 133.445 153.195 133.197 154.85 132.701C156.505 132.205 157.945 131.554 159.17 130.749C160.457 129.881 161.469 128.92 162.204 127.867C162.939 126.751 163.307 125.573 163.307 124.334C163.307 123.218 162.97 122.164 162.296 121.173C161.683 120.181 160.825 119.344 159.722 118.663C158.619 117.919 157.301 117.361 155.769 116.989C154.298 116.555 152.705 116.338 150.989 116.338C149.273 116.338 147.68 116.555 146.209 116.989C144.738 117.423 143.451 118.043 142.348 118.849C141.245 119.592 140.387 120.522 139.774 121.638C139.161 122.753 138.855 123.993 138.855 125.356Z" fill="black"/>
<path d="M240.991 134.653H245.312C247.334 134.653 248.621 134.777 249.173 135.025C249.724 135.211 250 135.459 250 135.769C250 136.513 248.774 136.915 246.323 136.977C245.833 136.977 244.975 136.977 243.749 136.977C242.585 137.039 241.328 137.07 239.98 137.07C238.632 137.132 237.314 137.163 236.027 137.163C234.74 137.163 233.729 137.163 232.994 137.163C230.42 137.163 228.735 137.07 227.938 136.884C227.141 136.76 226.743 136.482 226.743 136.048C226.743 135.304 227.448 134.87 228.857 134.746L234.74 134.281C235.353 134.219 235.813 134.064 236.119 133.816C236.487 133.507 236.732 132.701 236.855 131.399C236.916 130.841 236.977 130.005 237.039 128.889C237.1 127.712 237.161 126.379 237.222 124.892C237.284 123.342 237.345 121.7 237.406 119.964C237.467 118.229 237.498 116.493 237.498 114.758C237.498 111.535 237.376 108.777 237.13 106.484C236.885 104.191 236.426 102.331 235.752 100.906C235.139 99.4803 234.25 98.4267 233.086 97.7449C231.921 97.0632 230.42 96.7223 228.581 96.7223C226.804 96.7223 225.211 97.0012 223.801 97.559C222.453 98.0548 221.227 98.7676 220.124 99.6973C219.082 100.565 218.163 101.588 217.366 102.765C216.57 103.943 215.896 105.151 215.344 106.391V131.957H220.032C221.442 131.957 222.361 132.081 222.79 132.329C223.219 132.515 223.434 132.763 223.434 133.073C223.434 133.383 223.219 133.661 222.79 133.909C222.422 134.157 221.963 134.281 221.411 134.281C221.166 134.281 220.339 134.281 218.929 134.281C217.581 134.281 216.11 134.312 214.517 134.374C212.923 134.374 211.391 134.374 209.92 134.374C208.511 134.374 207.592 134.374 207.163 134.374C204.282 134.374 202.842 134.002 202.842 133.259C202.842 132.701 203.731 132.329 205.508 132.143L208.725 131.771C209.338 131.709 209.829 131.492 210.196 131.12C210.564 130.749 210.84 130.284 211.024 129.726C211.207 129.106 211.33 128.424 211.391 127.681C211.453 126.875 211.514 126.007 211.575 125.077C211.636 124.024 211.667 122.908 211.667 121.731C211.728 120.553 211.759 118.787 211.759 116.431C211.759 116.308 211.759 115.657 211.759 114.479C211.759 113.302 211.728 112 211.667 110.574C211.483 106.298 210.809 103.075 209.645 100.906C208.48 98.7366 206.305 97.652 203.118 97.652C201.402 97.652 199.778 97.9619 198.246 98.5816C196.714 99.2014 195.366 100.162 194.201 101.464C193.037 102.703 192.087 104.253 191.352 106.112C190.677 107.909 190.34 110.017 190.34 112.434V132.515H194.017C195.978 132.515 197.327 132.701 198.062 133.073C198.798 133.383 199.165 133.723 199.165 134.095C199.165 134.777 198.522 135.118 197.235 135.118C196.99 135.118 196.653 135.118 196.224 135.118C195.856 135.118 195.059 135.118 193.834 135.118C192.669 135.056 190.923 135.025 188.594 135.025C186.326 135.025 183.14 135.025 179.034 135.025C178.543 135.025 178.114 134.901 177.747 134.653C177.379 134.405 177.195 134.126 177.195 133.816C177.195 133.197 177.992 132.856 179.585 132.794C180.995 132.67 182.098 132.608 182.894 132.608C183.691 132.608 184.273 132.546 184.641 132.422C185.07 132.298 185.346 132.05 185.468 131.678C185.591 131.244 185.713 130.563 185.836 129.633C185.959 128.393 186.142 126.069 186.388 122.66C186.694 119.251 186.847 115.254 186.847 110.667C186.847 107.878 186.786 105.678 186.663 104.067C186.541 102.455 186.357 101.247 186.112 100.441C185.928 99.5733 185.683 99.0465 185.376 98.8605C185.07 98.6126 184.764 98.4887 184.457 98.4887H181.424C176.95 98.4887 174.713 98.1168 174.713 97.3731C174.713 97.0632 175.05 96.7843 175.724 96.5364C176.46 96.2884 177.41 96.1025 178.574 95.9785C179.8 95.7926 181.24 95.6687 182.894 95.6067C184.549 95.4827 186.326 95.4207 188.226 95.4207C188.716 95.4207 189.084 95.5757 189.329 95.8856C189.574 96.1335 189.728 96.6603 189.789 97.466L190.065 103.509C191.168 100.782 192.884 98.6746 195.212 97.1871C197.541 95.6377 200.207 94.8629 203.21 94.8629C208.848 94.8629 212.617 97.559 214.517 102.951C216.294 99.9142 218.378 97.652 220.768 96.1645C223.219 94.677 225.885 93.9332 228.765 93.9332C232.258 93.9332 235.169 95.1418 237.498 97.559C239.827 99.9142 240.991 103.726 240.991 108.994V134.653Z" fill="black"/>
<path d="M168.76 63.2916C173.88 64.1316 178.99 64.9716 184.11 65.7916C186.08 66.1116 185.8 66.0316 186.23 64.3516C187.34 60.0416 189.11 56.0616 192.09 52.7016C193.48 51.1316 195 49.6916 196.88 48.7216C199.85 47.2116 202.47 48.7416 202.62 52.0416C202.7 53.7216 202.31 55.3316 201.67 56.8816C200.16 60.5516 197.57 63.2616 194.18 65.2516C193.62 65.5816 192.89 65.7416 192.51 66.4916C196.86 67.0216 205 65.9416 208.62 64.4916C209.36 64.1916 209.6 63.7316 209.69 63.0616C209.89 61.4916 210.05 59.9116 210.29 58.3516C210.95 54.0816 212.42 50.1416 215.07 46.6916C215.86 45.6616 216.71 44.6916 217.85 44.0116C220.62 42.3716 222.93 43.5116 223.2 46.6916C223.37 48.7516 222.9 50.7016 222.07 52.5716C220.88 55.2316 219.18 57.5316 217.14 59.6016C216.74 60.0016 216.17 60.3216 216.19 61.1516C221.71 57.9316 226.61 54.1816 231.16 49.9516C232.03 49.1416 232.56 48.1916 232.87 47.0316C233.62 44.2516 234.54 41.5216 235.59 38.8316C236.22 37.2216 237 35.6916 238.13 34.3416C238.84 33.4916 239.71 32.8516 240.69 32.4016C243.11 31.3116 245.22 32.5116 245.59 35.1416C245.75 36.3116 245.56 37.4416 245.16 38.5416C244.57 40.1916 243.63 41.6516 242.44 42.9116C239.95 45.5516 236.98 47.5916 233.89 49.4516C232.33 50.3916 228.36 53.7816 227.18 55.4816C227.65 55.6516 228.02 55.3616 228.41 55.2416C230.49 54.6316 232.58 54.1216 234.75 54.0216C236.34 53.9516 237.93 54.0216 239.42 54.6616C241.9 55.7316 242.44 57.7216 240.82 59.8616C239.43 61.7016 237.53 62.8616 235.42 63.6716C232.27 64.8816 228.99 65.1716 225.65 64.8616C223.06 64.6216 220.52 64.1016 218.02 63.3916C216.78 63.0416 215.74 63.0616 214.54 63.6916C211.6 65.2316 208.49 66.3516 205.25 67.1116C204.81 67.2116 204.23 67.1316 203.92 67.7516C206.19 68.2716 208.44 68.7416 210.56 69.6616C212.22 70.3816 213.82 71.1916 215 72.6316C216.51 74.4816 216.57 76.6716 215.17 78.5916C213.37 81.0616 210.09 81.9416 207.27 80.7116C205.59 79.9816 204.26 78.7816 203.02 77.4516C200.75 75.0216 199 72.1916 197.02 69.5416C196.51 68.8616 196.07 68.4016 195.12 68.4316C190.71 68.5616 186.36 67.9816 182 67.3616C181.64 67.3116 181.22 67.0716 180.79 67.5816C182.65 68.9016 184.45 70.1916 185.99 71.8016C187.24 73.1016 187.98 74.6216 188.04 76.4316C188.11 78.5716 186.79 80.4316 184.69 81.2616C182.95 81.9416 181.45 81.4916 179.87 79.8416C179.17 79.1016 178.66 78.2416 178.16 77.3616C176.46 74.3116 175.45 71.0116 174.52 67.6816C174.17 66.4416 173.54 65.8316 172.19 65.6216C168.13 64.9916 164.06 64.5016 159.94 64.5916C159.41 64.6016 158.85 64.5316 158.15 64.9216C160.41 66.3516 162.5 67.5916 164.36 69.1716C165.68 70.3016 166.93 71.4716 167.82 72.9916C168.64 74.4016 168.51 75.7516 167.55 77.0216C165.67 79.5316 162.33 80.2216 159.64 78.5816C157.39 77.2116 155.62 75.3516 154.45 72.9416C153.3 70.5916 152.68 68.1016 152.29 65.5116C151.32 65.3516 150.5 65.6516 149.68 65.8516C145.83 66.7816 142.09 68.0816 138.44 69.6316C137.95 69.8416 137.45 70.2116 137 69.6116C137.16 69.0216 137.63 68.9416 138 68.7516C144.96 65.2216 152.25 62.9716 160.12 62.8616C162.1 62.8316 161.84 63.0416 162.32 61.0916C163.62 55.8516 166.62 51.7216 171.04 48.6516C172.43 47.6916 174.06 47.0016 175.68 48.0516C177.41 49.1716 177.28 51.0016 176.95 52.7416C176.34 56.0216 174.49 58.5316 171.83 60.4616C170.68 61.2916 169.48 62.0516 168.11 62.9716C168.49 63.1416 168.61 63.2416 168.75 63.2616L168.76 63.2916ZM200.97 53.0716C201.07 51.9916 201.22 50.7816 200.1 50.1516C199.02 49.5416 197.98 50.1616 197.1 50.7816C195.38 51.9816 193.96 53.5216 192.71 55.2116C190.77 57.8316 189.45 60.7516 188.4 64.0916C189.29 63.9416 189.69 63.4416 190.07 63.0016C191.4 61.4916 192.69 59.9416 193.99 58.4016C194.55 57.7416 195.05 57.0416 195.64 56.4116C195.99 56.0416 196.36 55.2516 196.98 55.7616C197.54 56.2216 196.98 56.8216 196.69 57.2816C194.99 60.0416 193.1 62.6616 190.43 65.2016C195.47 63.8716 200.51 58.1016 200.96 53.0616L200.97 53.0716ZM229.49 58.5416C230.21 58.4116 231.38 57.8016 231.59 58.6516C231.81 59.5616 230.48 59.4416 229.81 59.6216C226.92 60.4116 224 61.1116 221.09 62.1716C222.41 62.3016 223.72 62.4916 225.04 62.5516C228.67 62.7016 232.22 62.3316 235.6 60.8916C236.81 60.3716 237.89 59.6816 238.78 58.7216C239.92 57.5016 239.78 56.8516 238.21 56.1816C236.99 55.6616 235.7 55.5716 234.4 55.6216C231.2 55.7416 228.14 56.4916 225.22 57.8016C224.07 58.3216 222.8 58.6816 222.1 60.0116C224.56 59.5216 227.01 59.0116 229.48 58.5616L229.49 58.5416ZM206.7 78.2316C208.44 79.5216 210.31 79.9816 212.34 78.8216C214.84 77.4016 215.07 74.7916 212.82 73.0116C211.33 71.8416 209.6 71.1316 207.81 70.5616C205.9 69.9516 203.99 69.3916 201.88 69.2816C202.19 70.1716 202.97 70.3016 203.55 70.6416C205.34 71.7016 207.16 72.7216 208.97 73.7616C209.34 73.9716 209.69 74.2316 210.04 74.4816C210.36 74.7016 210.61 74.9916 210.4 75.3716C210.17 75.7916 209.78 75.6116 209.46 75.4616C207.26 74.3916 205.07 73.3116 202.87 72.2416C202.17 71.9016 201.56 71.3716 200.27 71.1416C202.29 73.9616 204.19 76.3716 206.7 78.2316ZM161.23 77.3516C162.23 77.9016 163.28 77.8716 164.35 77.4316C166.91 76.3816 167.36 74.6716 165.58 72.5916C163.69 70.3816 160.31 67.8816 158.01 67.0916C159.02 68.0716 159.87 68.8316 160.64 69.6616C161.32 70.4016 161.92 71.2116 162.51 72.0216C162.77 72.3716 162.9 72.8416 162.44 73.1516C162.1 73.3816 161.75 73.2016 161.47 72.9516C160.1 71.6816 158.75 70.3916 157.38 69.1316C156.41 68.2416 155.4 67.3716 154.41 66.5016C155.1 71.2016 157.02 75.0316 161.24 77.3516H161.23ZM217.6 50.5516C218.43 50.9116 218.07 51.4216 217.86 51.8316C216.85 53.9016 215.79 55.9416 214.78 58.0116C214.48 58.6316 213.94 59.1816 214.07 60.3316C217.57 56.7916 220.6 53.3116 221.28 48.4016C221.42 47.3716 221.69 46.0216 220.55 45.4716C219.31 44.8816 218.39 45.9516 217.62 46.7816C214.44 50.2316 212.96 54.4716 212.16 59.0116C214.17 56.3016 215.61 53.2516 217.59 50.5516H217.6ZM167.9 57.1716C168.76 56.2116 169.57 55.2016 170.42 54.2316C170.74 53.8616 171.11 53.3216 171.65 53.7716C172.15 54.1916 171.73 54.7116 171.47 55.1016C170.92 55.9416 170.33 56.7616 169.74 57.5716C168.87 58.7716 167.97 59.9516 167.01 61.2516C170.93 60.1016 174.84 55.6216 175.2 51.9616C175.24 51.5416 175.25 51.0916 175.17 50.6816C175.02 49.8116 174.49 49.4816 173.61 49.7016C172.76 49.9216 171.97 50.2716 171.31 50.8416C168.3 53.4716 165.81 56.4916 164.26 60.2216C164.15 60.4816 164.01 60.7516 164.29 61.2816C165.74 60.0216 166.7 58.4916 167.89 57.1616L167.9 57.1716ZM182.1 72.0316C182.41 72.5116 182.73 73.0016 182.96 73.5216C183.2 74.0716 183.87 74.7816 183.22 75.2516C182.55 75.7316 182.13 74.8916 181.74 74.4216C181.18 73.7616 180.71 73.0316 180.12 72.4016C179.05 71.2616 178.33 69.8116 176.62 68.5816C177.35 71.3616 178.38 73.5516 179.5 75.7016C179.99 76.6516 180.65 77.5216 181.25 78.4116C181.85 79.2916 182.62 79.9816 183.75 79.7416C185.02 79.4716 185.96 78.7016 186.33 77.4016C186.6 76.4616 186.48 75.5416 186.03 74.6816C184.87 72.4716 183 71.0116 180.69 69.9416C181.15 70.6316 181.63 71.3116 182.08 72.0116L182.1 72.0316ZM242.38 39.3516C243.05 38.2416 243.61 37.0716 243.61 35.7316C243.61 34.0916 242.77 33.5316 241.24 34.1416C240.34 34.5016 239.71 35.1916 239.14 35.9316C237.49 38.0616 236.67 40.5916 235.79 43.1216C237.63 41.2616 238.73 38.8116 240.79 37.1016C239.79 39.9416 237.82 42.2516 236.56 44.9716C238.92 43.4816 240.96 41.7216 242.39 39.3516H242.38Z" fill="#1D262D"/>
<circle cx="144.5" cy="46.5" r="1.5" fill="black"/>
<circle cx="133.5" cy="71.5" r="1.5" fill="black"/>
</g>
<defs>
<clipPath id="clip0_44_101">
<rect width="250" height="138" fill="white"/>
</clipPath>
</defs>
</svg>
