<svg width="144" height="100" viewBox="0 0 144 100" fill="none" xmlns="http://www.w3.org/2000/svg">
<g clip-path="url(#clip0_51_104)">
<path d="M0 20.8443H3.68203V24.4815C3.68203 25.7872 3.96168 26.9996 4.52097 28.1188C5.08027 29.2068 5.90367 30.0773 6.99119 30.7301C8.07871 31.383 9.3682 31.7094 10.8597 31.7094C12.2579 31.7094 13.4386 31.414 14.4019 30.8234C15.3962 30.2016 16.1419 29.3312 16.639 28.212C17.1362 27.0929 17.3848 25.7872 17.3848 24.295V5.82893H9.55463V2.09842H26.1005V5.82893H21.2532V23.9686C21.2532 26.3312 20.8338 28.3675 19.9948 30.0773C19.1559 31.7871 17.9751 33.1083 16.4526 34.041C14.9612 34.9736 13.2367 35.4399 11.2791 35.4399C10.0984 35.4399 9.04194 35.2845 8.10978 34.9736C7.17762 34.6938 6.35422 34.2897 5.63956 33.7612C5.2667 33.4814 4.90937 33.1705 4.56758 32.8285C4.25686 32.4555 3.97721 32.0824 3.72864 31.7094V36.2326H0V20.8443Z" fill="black"/>
<path d="M27.2227 31.3363H31.9301V14.8288H27.2227V11.4247H35.3325V31.3363H39.9933V34.7404H27.2227V31.3363ZM29.9726 0H35.9384L33.1885 8.11387H32.6758L29.9726 0Z" fill="black"/>
<path d="M56.8009 44.533C54.1598 44.533 51.8604 44.2377 49.9029 43.647C47.9765 43.0564 46.485 42.2015 45.4285 41.0823C44.4032 39.9631 43.8905 38.6419 43.8905 37.1186C43.8905 35.6886 44.4187 34.4606 45.4752 33.4347C46.5316 32.3778 48.0231 31.6161 49.9495 31.1498C47.3084 30.8389 45.2421 30.2172 43.7507 29.2845C42.2592 28.3519 41.5135 26.9996 41.5135 25.2276C41.5135 24.6369 41.6844 24.0463 42.0262 23.4556C42.368 22.8649 42.834 22.3831 43.4244 22.01C44.0148 21.6059 44.6828 21.4038 45.4285 21.4038C45.5839 21.4038 45.7237 21.4194 45.848 21.4505C45.9723 21.4505 46.0966 21.466 46.2209 21.4971C45.7237 20.6266 45.4752 19.6629 45.4752 18.6059C45.4752 16.5231 46.3452 14.8443 48.0852 13.5698C49.8252 12.2641 52.2955 11.4869 55.4959 11.2382V7.78745H50.4622V4.52325H63.8387V7.78745H58.805V11.2382C61.0422 11.3314 62.9376 11.6889 64.4912 12.3107C66.0448 12.9325 67.21 13.7874 67.9868 14.8754C68.7947 15.9324 69.1986 17.1759 69.1986 18.6059C69.1986 20.1292 68.6859 21.466 67.6605 22.6162C66.6662 23.7665 65.268 24.6525 63.4658 25.2742C61.6637 25.896 59.6129 26.2069 57.3136 26.2069C55.9775 26.2069 54.8123 26.1292 53.818 25.9737C52.8547 25.7872 52.0624 25.5851 51.441 25.3675C50.8506 25.1188 50.1981 24.8235 49.4834 24.4815C48.862 24.1395 48.3182 23.9064 47.8522 23.782C47.4172 23.6266 46.9355 23.5489 46.4073 23.5489C45.9102 23.5489 45.5062 23.7043 45.1955 24.0152C44.9159 24.295 44.776 24.6369 44.776 25.0411C44.776 26.0981 45.2266 26.9063 46.1277 27.4659C47.0598 27.9944 48.225 28.3675 49.6233 28.5851C51.0526 28.7716 53.0723 28.9581 55.6823 29.1446C56.1795 29.1757 56.6766 29.2068 57.1738 29.2379C57.6709 29.269 58.1836 29.3001 58.7118 29.3312C62.0365 29.5488 64.7242 30.3104 66.775 31.6161C68.8257 32.8907 69.8511 34.6472 69.8511 36.8855C69.8511 38.4399 69.3074 39.7922 68.2198 40.9424C67.1634 42.0926 65.6564 42.9786 63.6989 43.6004C61.7413 44.2221 59.442 44.533 56.8009 44.533ZM56.8475 41.3621C58.7429 41.3621 60.3897 41.1756 61.7879 40.8025C63.1862 40.4295 64.2582 39.901 65.0039 39.217C65.7807 38.5331 66.1691 37.7404 66.1691 36.8388C66.1691 35.9062 65.7807 35.0824 65.0039 34.3674C64.2582 33.6524 63.1862 33.1083 61.7879 32.7353C60.3897 32.3622 58.7429 32.1757 56.8475 32.1757C54.9832 32.1757 53.3519 32.3622 51.9537 32.7353C50.5554 33.1083 49.4834 33.6524 48.7377 34.3674C47.992 35.0824 47.6191 35.9062 47.6191 36.8388C47.6191 37.7404 47.992 38.5331 48.7377 39.217C49.5145 39.901 50.5865 40.4295 51.9537 40.8025C53.3519 41.1756 54.9832 41.3621 56.8475 41.3621ZM57.3136 23.0359C59.8304 23.0359 61.819 22.6318 63.2794 21.8235C64.7709 20.9841 65.5166 19.8805 65.5166 18.5127C65.5166 17.1137 64.7709 16.0101 63.2794 15.2018C61.819 14.3625 59.8304 13.9428 57.3136 13.9428C54.8278 13.9428 52.8392 14.3625 51.3478 15.2018C49.8874 16.0101 49.1572 17.1137 49.1572 18.5127C49.1572 19.8805 49.8874 20.9841 51.3478 21.8235C52.8392 22.6318 54.8278 23.0359 57.3136 23.0359Z" fill="black"/>
<path d="M87.2508 44.533C84.6097 44.533 82.3104 44.2377 80.3528 43.647C78.4264 43.0564 76.9349 42.2015 75.8785 41.0823C74.8531 39.9631 74.3404 38.6419 74.3404 37.1186C74.3404 35.6886 74.8686 34.4606 75.9251 33.4347C76.9815 32.3778 78.473 31.6161 80.3994 31.1498C77.7583 30.8389 75.692 30.2172 74.2006 29.2845C72.7091 28.3519 71.9634 26.9996 71.9634 25.2276C71.9634 24.6369 72.1343 24.0463 72.4761 23.4556C72.8179 22.8649 73.284 22.3831 73.8743 22.01C74.4647 21.6059 75.1327 21.4038 75.8785 21.4038C76.0338 21.4038 76.1737 21.4194 76.2979 21.4505C76.4222 21.4505 76.5465 21.466 76.6708 21.4971C76.1737 20.6266 75.9251 19.6629 75.9251 18.6059C75.9251 16.5231 76.7951 14.8443 78.5351 13.5698C80.2752 12.2641 82.7454 11.4869 85.9458 11.2382V7.78745H80.9121V4.52325H94.2886V7.78745H89.255V11.2382C91.4921 11.3314 93.3875 11.6889 94.9411 12.3107C96.4947 12.9325 97.6599 13.7874 98.4367 14.8754C99.2446 15.9324 99.6485 17.1759 99.6485 18.6059C99.6485 20.1292 99.1358 21.466 98.1105 22.6162C97.1162 23.7665 95.7179 24.6525 93.9157 25.2742C92.1136 25.896 90.0628 26.2069 87.7635 26.2069C86.4274 26.2069 85.2622 26.1292 84.2679 25.9737C83.3047 25.7872 82.5123 25.5851 81.8909 25.3675C81.3005 25.1188 80.648 24.8235 79.9334 24.4815C79.3119 24.1395 78.7682 23.9064 78.3021 23.782C77.8671 23.6266 77.3855 23.5489 76.8572 23.5489C76.3601 23.5489 75.9561 23.7043 75.6454 24.0152C75.3658 24.295 75.226 24.6369 75.226 25.0411C75.226 26.0981 75.6765 26.9063 76.5776 27.4659C77.5097 27.9944 78.6749 28.3675 80.0732 28.5851C81.5025 28.7716 83.5222 28.9581 86.1322 29.1446C86.6294 29.1757 87.1265 29.2068 87.6237 29.2379C88.1208 29.269 88.6335 29.3001 89.1617 29.3312C92.4864 29.5488 95.1742 30.3104 97.2249 31.6161C99.2757 32.8907 100.301 34.6472 100.301 36.8855C100.301 38.4399 99.7573 39.7922 98.6698 40.9424C97.6133 42.0926 96.1063 42.9786 94.1488 43.6004C92.1913 44.2221 89.8919 44.533 87.2508 44.533ZM87.2974 41.3621C89.1928 41.3621 90.8396 41.1756 92.2379 40.8025C93.6361 40.4295 94.7081 39.901 95.4538 39.217C96.2306 38.5331 96.619 37.7404 96.619 36.8388C96.619 35.9062 96.2306 35.0824 95.4538 34.3674C94.7081 33.6524 93.6361 33.1083 92.2379 32.7353C90.8396 32.3622 89.1928 32.1757 87.2974 32.1757C85.4331 32.1757 83.8018 32.3622 82.4036 32.7353C81.0053 33.1083 79.9334 33.6524 79.1876 34.3674C78.4419 35.0824 78.069 35.9062 78.069 36.8388C78.069 37.7404 78.4419 38.5331 79.1876 39.217C79.9644 39.901 81.0364 40.4295 82.4036 40.8025C83.8018 41.1756 85.4331 41.3621 87.2974 41.3621ZM87.7635 23.0359C90.2803 23.0359 92.2689 22.6318 93.7293 21.8235C95.2208 20.9841 95.9665 19.8805 95.9665 18.5127C95.9665 17.1137 95.2208 16.0101 93.7293 15.2018C92.2689 14.3625 90.2803 13.9428 87.7635 13.9428C85.2777 13.9428 83.2891 14.3625 81.7977 15.2018C80.3373 16.0101 79.6071 17.1137 79.6071 18.5127C79.6071 19.8805 80.3373 20.9841 81.7977 21.8235C83.2891 22.6318 85.2777 23.0359 87.7635 23.0359Z" fill="black"/>
<path d="M102.553 31.3363H107.214V5.50251H102.46V2.09842H110.616V31.3363H115.65V34.7404H102.553V31.3363Z" fill="black"/>
<path d="M117.853 34.041H121.115V36.3259C121.115 37.2585 121.271 38.0979 121.582 38.844C121.923 39.5901 122.374 40.1497 122.933 40.5227C123.524 40.9269 124.192 41.1289 124.937 41.1289C125.963 41.1289 126.802 40.8181 127.454 40.1963C128.138 39.5745 128.48 38.673 128.48 37.4917V36.559C128.48 36.1238 128.433 35.7041 128.34 35.3C128.247 34.9269 128.107 34.5228 127.92 34.0876C127.858 33.9321 127.796 33.7923 127.734 33.6679C127.672 33.5435 127.61 33.4192 127.547 33.2948L117.993 14.8288H114.777V11.4247H127.081V14.8288H122.141L129.318 29.0514C129.443 29.269 129.536 29.5022 129.598 29.7509C129.691 29.9685 129.785 30.2016 129.878 30.4503C129.94 30.5436 130.033 30.8078 130.157 31.2431C130.189 30.9944 130.235 30.7923 130.297 30.6369C130.359 30.4503 130.437 30.2483 130.53 30.0306L137.149 14.8288H131.975V11.4247H144V14.8288H140.831L132.954 32.5487C132.923 32.5798 132.892 32.6265 132.861 32.6886C132.861 32.7197 132.861 32.7664 132.861 32.8285C132.55 33.5435 132.332 34.1498 132.208 34.6472C132.084 35.1135 132.022 35.642 132.022 36.2326V37.4917C132.022 38.8284 131.742 40.0253 131.183 41.0823C130.655 42.1704 129.893 43.0097 128.899 43.6004C127.936 44.1911 126.833 44.4864 125.59 44.4864C124.906 44.4864 124.269 44.3776 123.679 44.16C123.089 43.9734 122.576 43.6937 122.141 43.3206C121.737 43.0097 121.395 42.6367 121.115 42.2015V44.3465H117.853V34.041Z" fill="black"/>
<path d="M0 76.3579H3.68203V79.9951C3.68203 81.3008 3.96168 82.5132 4.52097 83.6324C5.08027 84.7204 5.90367 85.5909 6.99119 86.2437C8.07871 86.8966 9.3682 87.223 10.8597 87.223C12.2579 87.223 13.4386 86.9277 14.4019 86.337C15.3962 85.7152 16.1419 84.8448 16.639 83.7256C17.1362 82.6065 17.3848 81.3008 17.3848 79.8086V61.3425H9.55463V57.612H26.1005V61.3425H21.2532V79.4822C21.2532 81.8448 20.8338 83.8811 19.9948 85.5909C19.1559 87.3007 17.9751 88.6219 16.4526 89.5546C14.9612 90.4872 13.2367 90.9535 11.2791 90.9535C10.0984 90.9535 9.04194 90.7981 8.10978 90.4872C7.17762 90.2074 6.35422 89.8033 5.63956 89.2748C5.2667 88.995 4.90937 88.6841 4.56758 88.3421C4.25686 87.9691 3.97721 87.596 3.72864 87.223V91.7462H0V76.3579Z" fill="black"/>
<path d="M47.4039 87.9691C46.7825 88.6219 45.9125 89.2126 44.7939 89.7411C44.1103 90.052 43.349 90.2851 42.5101 90.4406C41.6711 90.6271 40.8011 90.7203 39.9 90.7203C37.6939 90.7203 35.7053 90.223 33.9342 89.2281C32.1631 88.2333 30.7649 86.8344 29.7395 85.0313C28.7141 83.2282 28.2014 81.1298 28.2014 78.7361C28.2014 76.3734 28.7141 74.2595 29.7395 72.3942C30.796 70.5289 32.2253 69.0834 34.0274 68.0575C35.8607 67.0005 37.8804 66.472 40.0865 66.472C42.3547 66.472 44.3744 66.9849 46.1455 68.0108C47.9477 69.0367 49.3459 70.4668 50.3402 72.3009C51.3345 74.1351 51.8317 76.2335 51.8317 78.5962C51.8317 78.8449 51.8161 79.1091 51.7851 79.3889C51.7851 79.6687 51.7851 79.9329 51.7851 80.1816H31.697C31.8835 81.6117 32.3651 82.9018 33.1419 84.0521C33.9187 85.1712 34.913 86.0417 36.1248 86.6634C37.3677 87.2852 38.7504 87.596 40.2729 87.596C41.3915 87.596 42.4635 87.394 43.4889 86.9898C44.5453 86.5857 45.3843 86.0728 46.0057 85.451C46.6582 84.7982 46.9845 84.1453 46.9845 83.4925V82.6531H50.5733V90.767H47.4039V87.9691ZM48.1963 77.104C48.0409 75.6118 47.5904 74.3061 46.8446 73.1869C46.0989 72.0367 45.1357 71.1662 43.9549 70.5756C42.7742 69.9538 41.4536 69.6429 39.9933 69.6429C38.564 69.6429 37.2434 69.9694 36.0316 70.6222C34.8509 71.244 33.8721 72.1299 33.0953 73.2802C32.3496 74.4304 31.899 75.705 31.7437 77.104H48.1963Z" fill="black"/>
<path d="M55.3535 86.8499H60.0143V61.0161H55.2603V57.612H63.4167V86.8499H68.4503V90.254H55.3535V86.8499Z" fill="black"/>
<path d="M70.3736 86.8499H75.0344V61.0161H70.2804V57.612H78.4368V86.8499H83.4705V90.254H70.3736V86.8499Z" fill="black"/>
<path d="M85.6734 89.5546H88.936V91.8395C88.936 92.7721 89.0913 93.6115 89.4021 94.3576C89.7438 95.1037 90.1944 95.6633 90.7537 96.0363C91.3441 96.4405 92.0121 96.6425 92.7578 96.6425C93.7832 96.6425 94.6221 96.3317 95.2747 95.7099C95.9582 95.0882 96.3 94.1866 96.3 93.0053V92.0727C96.3 91.6374 96.2534 91.2178 96.1602 90.8136C96.067 90.4406 95.9272 90.0364 95.7407 89.6012C95.6786 89.4458 95.6164 89.3059 95.5543 89.1815C95.4922 89.0572 95.43 88.9328 95.3679 88.8085L85.8132 70.3424H82.5973V66.9383H94.9018V70.3424H89.9614L97.139 84.565C97.2633 84.7826 97.3565 85.0158 97.4186 85.2645C97.5118 85.4821 97.6051 85.7152 97.6983 85.9639C97.7604 86.0572 97.8536 86.3214 97.9779 86.7567C98.009 86.508 98.0556 86.3059 98.1177 86.1505C98.1799 85.9639 98.2576 85.7619 98.3508 85.5443L104.969 70.3424H99.7956V66.9383H111.82V70.3424H108.651L100.774 88.0624C100.743 88.0934 100.712 88.1401 100.681 88.2023C100.681 88.2333 100.681 88.28 100.681 88.3421C100.37 89.0572 100.153 89.6634 100.029 90.1608C99.9044 90.6271 99.8422 91.1556 99.8422 91.7462V93.0053C99.8422 94.3421 99.5626 95.5389 99.0033 96.5959C98.4751 97.684 97.7138 98.5233 96.7195 99.114C95.7563 99.7047 94.6532 100 93.4103 100C92.7268 100 92.0898 99.8912 91.4994 99.6736C90.909 99.4871 90.3964 99.2073 89.9614 98.8342C89.5574 98.5233 89.2156 98.1503 88.936 97.7151V99.8601H85.6734V89.5546Z" fill="black"/>
</g>
<defs>
<clipPath id="clip0_51_104">
<rect width="144" height="100" fill="white"/>
</clipPath>
</defs>
</svg>
