<svg width="180" height="167" viewBox="0 0 180 167" fill="none" xmlns="http://www.w3.org/2000/svg">
<g clip-path="url(#clip0_42_20)">
<path d="M2.32507 8.48038C4.22513 8.88226 5.17516 9.73627 5.17516 11.0424C4.67514 12.449 3.87512 13.1523 2.77509 13.1523C0.925028 12.8006 0 11.8713 0 10.3642C0.500015 9.10832 1.27504 8.48038 2.32507 8.48038ZM5.17516 19.0298C5.97518 19.0298 6.6502 19.7582 7.20022 21.2151L6.5252 26.5651V30.1068C6.5252 34.2261 7.22522 39.6264 8.62527 46.3077C8.12525 47.2622 7.27522 47.7394 6.07519 47.7394C4.02512 47.7394 2.67508 41.7112 2.02506 29.6546V27.0173C2.02506 21.6923 3.07509 19.0298 5.17516 19.0298Z" fill="black"/>
<path d="M21.3352 0C22.7353 0.301415 23.4353 1.00471 23.4353 2.10989L22.9853 5.42543V6.40503C22.9853 8.61539 23.2353 10.9513 23.7353 13.4129H23.8853C29.6855 11.6546 33.2856 10.7755 34.6856 10.7755C36.1357 11.1774 36.8607 11.9058 36.8607 12.9608C36.8607 14.6688 35.1357 15.5228 31.6855 15.5228L23.8853 18.3108C23.8853 25.0926 24.6103 34.3108 26.0604 45.9655C25.7604 47.3218 25.0353 48 23.8853 48H23.7353C21.9852 48 21.1102 45.7394 21.1102 41.2182C20.4602 37.8524 19.9102 30.5432 19.4602 19.2904H18.1101C13.41 18.989 11.0599 17.8838 11.0599 15.9749C11.0599 15.4223 11.5849 14.7441 12.635 13.9403H13.385L16.8351 14.8446H19.2352L18.5601 5.42543C18.5601 1.80848 19.4852 0 21.3352 0Z" fill="black"/>
<path d="M47.8248 15.2214C49.1749 15.2214 50.0999 17.5071 50.5999 22.0785C50.0999 23.3344 49.2749 23.9623 48.1249 23.9623C47.3248 23.8116 46.5248 22.8823 45.7248 21.1743L44.3747 20.7221C42.0247 20.7221 39.8996 22.2794 37.9995 25.394V26.0722C37.9995 26.8257 41.5247 28.0816 48.5749 29.8399C51.525 31.5981 53 33.7331 53 36.2449C53 40.3642 49.6999 43.8807 43.0997 46.7943L40.3246 47.2465C36.1245 46.7944 34.0244 44.6845 34.0244 40.9168V40.6907C34.0244 39.4851 34.7994 38.7818 36.3495 38.5809C37.5495 38.5809 38.3495 39.8367 38.7496 42.3485L39.3496 42.8006H40.6246C43.4747 42.8006 46.1248 40.8414 48.5749 36.9231V35.9435C48.5749 34.4364 45.2998 33.0298 38.7496 31.7237C35.2995 30.3171 33.5744 28.3579 33.5744 25.8462C33.5744 22.5808 36.2995 19.5165 41.7497 16.6531C44.1497 16.3517 46.1748 15.8744 47.8248 15.2214Z" fill="black"/>
<path d="M28.4648 104C30.2994 104.396 31.2167 105.319 31.2167 106.769L30.627 111.121V112.407C30.627 115.308 30.9546 118.374 31.6098 121.604H31.8064C39.407 119.297 44.1245 118.143 45.9592 118.143C47.8593 118.67 48.8094 119.626 48.8094 121.011C48.8094 123.253 46.5489 124.374 42.0278 124.374L31.8064 128.033C31.8064 136.934 32.7565 149.033 34.6566 164.33C34.2635 166.11 33.3134 167 31.8064 167H31.6098C29.3166 167 28.1699 164.033 28.1699 158.099C27.3181 153.681 26.5974 144.088 26.0077 129.319H24.2386C18.0795 128.923 15 127.473 15 124.967C15 124.242 15.688 123.352 17.0639 122.297H18.0468L22.5678 123.484H25.7129L24.8283 111.121C24.8283 106.374 26.0405 104 28.4648 104Z" fill="black"/>
<path d="M52.9833 112.505C55.4732 113.033 56.7181 114.154 56.7181 115.868C56.0629 117.714 55.0145 118.637 53.573 118.637C51.1487 118.176 49.9366 116.956 49.9366 114.978C50.5918 113.33 51.6074 112.505 52.9833 112.505ZM56.7181 126.352C57.7664 126.352 58.651 127.308 59.3717 129.22L58.4872 136.242V140.89C58.4872 146.297 59.4045 153.385 61.2391 162.154C60.5839 163.407 59.47 164.033 57.8975 164.033C55.2111 164.033 53.442 156.121 52.5902 140.297V136.835C52.5902 129.846 53.9662 126.352 56.7181 126.352Z" fill="black"/>
<path d="M67.8694 119.721C68.328 118.073 69.3764 117.249 71.0144 117.249C72.6525 117.249 73.7336 118.897 74.2578 122.194H74.6509L79.1719 121.205C81.2686 121.205 83.2998 123.183 85.2655 127.139H85.6586C88.5416 122.59 91.4901 120.315 94.5041 120.315C100.925 121.502 104.136 125.721 104.136 132.974L104.332 136.436L103.448 156.414V158.293C103.448 159.941 102.432 160.897 100.401 161.161C98.3699 161.161 97.3543 158.754 97.3543 153.941L98.5337 136.04C98.5337 129.447 96.9939 126.15 93.9144 126.15C92.1453 126.15 90.0158 130.469 87.526 139.106C86.2811 148.996 85.2655 153.941 84.4792 153.941C83.3653 153.941 82.8084 154.172 82.8084 154.633C80.7772 154.37 79.7616 153.315 79.7616 151.469L81.0393 139.502C80.8427 131.26 80.0237 127.139 78.5822 127.139H78.2874C76.6493 128.392 75.8303 130.864 75.8303 134.557V139.798L75.4372 154.93C74.9785 156.579 73.9629 157.403 72.3904 157.403C71.0144 157.403 70.1299 156.249 69.7368 153.941L69.3436 142.271L69.9333 132.677C69.5402 127.732 68.8522 123.414 67.8694 119.721Z" fill="black"/>
<path d="M118.621 117.831C121.242 117.897 125.665 122.513 131.889 131.677L132.086 133.359C132.086 135.205 127.598 136.622 118.621 137.612L118.326 137.908V138.304C119.702 144.238 121.144 147.205 122.651 147.205H123.83C125.927 147.205 129.105 144.93 133.364 140.381H133.953C135.264 140.381 136.279 141.337 137 143.249C137 144.831 134.248 147.568 128.744 151.458C127.303 152.315 125.566 152.941 123.535 153.337C118.228 153.337 114.526 148.326 112.429 138.304C109.415 137.842 107.908 136.59 107.908 134.546C107.908 133.095 109.022 132.139 111.25 131.677V132.073L112.233 131.677V129.205C112.233 121.622 114.362 117.831 118.621 117.831ZM119.211 124.952H118.326L117.933 128.612V131.677H118.326C121.995 131.546 123.83 131.15 123.83 130.491C122.126 127.919 120.587 126.073 119.211 124.952Z" fill="black"/>
<path fill-rule="evenodd" clip-rule="evenodd" d="M175.788 52.7002C175.788 49.8535 173.999 48.4302 170.42 48.4302C167.736 48.4302 164.849 49.6908 161.758 52.2122C152.567 63.5988 147.972 75.0262 147.972 86.4942C147.972 91.6995 150.127 94.9122 154.438 96.1322C159.074 96.1322 163.019 91.5775 166.272 82.4682H167.126C167.126 91.0082 170.176 97.3522 176.276 101.5H177.008C178.96 101.5 180.058 100.321 180.302 97.9622L180.058 96.1322C175.991 93.6922 173.958 87.4295 173.958 77.3442L174.69 55.0182L175.788 52.7002ZM155.17 85.0302L155.658 81.6142C157.203 72.1795 160.335 64.8188 165.052 59.5322H165.54C165.54 62.8668 162.49 72.1388 156.39 87.3482H155.17V85.0302ZM91.766 56.1162C91.034 53.8388 89.8953 52.7002 88.35 52.7002C80.786 54.0015 74.808 54.6522 70.416 54.6522C68.1387 54.6522 67 55.6688 67 57.7022C67 59.8982 68.3827 61.2808 71.148 61.8502L81.518 60.9962H81.884V61.4842L73.466 83.9322C70.7007 85.9655 69.318 87.4702 69.318 88.4462C69.318 93.0822 70.5787 95.4002 73.1 95.4002C73.832 95.4002 75.1333 94.7902 77.004 93.5702L82.616 94.3022C92.2947 94.3022 99.4113 91.4962 103.966 85.8842C103.966 83.0375 102.827 81.6142 100.55 81.6142C93.7993 85.1928 88.472 86.9822 84.568 86.9822H80.786L80.298 86.6162C80.7047 84.6642 84.5273 74.4975 91.766 56.1162ZM39.5 53.5973C39.6079 53.5973 39.7988 53.5905 40.062 53.5811C42.9744 53.4767 54.7313 53.0557 60.6015 58.0791C67.6231 64.0879 64.3742 67.8955 58.815 74.4107C54.3673 79.6232 48.4408 86.5688 45.112 97.7613C44.5 99.8191 42.916 100.079 40.964 100.079C37.6293 100.079 35.4333 90.3193 34.376 70.7993V66.5293C34.376 57.908 36.084 53.5973 39.5 53.5973ZM14.324 56.7693C22.9454 56.7693 28.0287 62.178 29.574 72.9953C29.574 82.5927 25.1007 89.4653 16.154 93.6133C15.178 94.1013 13.836 94.3453 12.128 94.3453H11.274L8.59003 94.1013V94.3453L9.07804 126.919C8.5087 129.441 7.20737 130.701 5.17403 130.701C2.8967 129.969 1.75803 128.79 1.75803 127.163L0.660034 60.7953C0.660034 58.6807 1.9207 57.5827 4.44203 57.5013L7.00403 58.5993C9.28137 57.3793 11.7214 56.7693 14.324 56.7693ZM8.22403 69.7013L7.85803 73.4833L8.22403 86.4153L11.64 87.2693C17.0894 87.2693 20.6274 83.284 22.254 75.3133V73.4833C21.6847 67.058 19.4074 63.8453 15.422 63.8453H13.592C10.0134 63.8453 8.22403 65.7973 8.22403 69.7013ZM126.356 52.7002C127.901 52.7002 129.04 53.8388 129.772 56.1162C122.533 74.4975 118.711 84.6642 118.304 86.6162L118.792 86.9822H122.574C126.478 86.9822 131.805 85.1928 138.556 81.6142C140.833 81.6142 141.972 83.0375 141.972 85.8842C137.417 91.4962 130.301 94.3022 120.622 94.3022L115.01 93.5702C113.139 94.7902 111.838 95.4002 111.106 95.4002C108.585 95.4002 107.324 93.0822 107.324 88.4462C107.324 87.4702 108.707 85.9655 111.472 83.9322L119.89 61.4842V60.9962H119.524L109.154 61.8502C106.389 61.2808 105.006 59.8982 105.006 57.7022C105.006 55.6688 106.145 54.6522 108.422 54.6522C112.814 54.6522 118.792 54.0015 126.356 52.7002ZM43.3827 66C45.2509 66 45.8878 64.3565 45.9848 62.6207C46.0796 60.9236 45.7714 59 43.9031 59C42.0349 59 40 60.7543 40 62.6207C40 64.487 41.5145 66 43.3827 66ZM49.7849 71.1222C49.4659 69.6667 49.6016 68.1675 51.1021 67.7521C52.6025 67.3368 54.1648 68.25 54.5915 69.7917C55.0183 71.3335 53.7851 73.2351 52.2847 73.6504C50.7843 74.0657 50.0969 72.5452 49.7849 71.1222ZM42.1021 75.7521C40.6016 76.1675 40.4659 77.6667 40.7849 79.1222C41.0969 80.5452 41.7843 82.0657 43.2847 81.6504C44.7851 81.2351 46.0183 79.3335 45.5915 77.7917C45.1648 76.25 43.6025 75.3368 42.1021 75.7521Z" fill="black"/>
</g>
<defs>
<clipPath id="clip0_42_20">
<rect width="180" height="167" fill="white"/>
</clipPath>
</defs>
</svg>
